<svg width="346" height="338" viewBox="0 0 346 338" fill="none" xmlns="http://www.w3.org/2000/svg">
<g clip-path="url(#clip0)">
<path d="M231.367 146.159L227.713 154.69L205.305 184.427C205.305 184.427 189.96 201.002 198.485 201.977C207.01 202.952 212.612 186.621 212.612 186.621L238.917 160.54L241.84 148.597L231.367 146.159Z" fill="#9F616A"/>
<path d="M242.571 111.547L239.04 112.537C239.04 112.537 223.186 154.682 224.648 159.801C226.109 164.919 232.686 171.257 235.608 170.769C238.531 170.282 242.571 111.547 242.571 111.547Z" fill="#F50057"/>
<path d="M291.903 328.136C291.903 328.136 290.353 335.911 295.013 332.799C299.673 329.688 302.102 323.67 302.102 323.67L291.903 328.136Z" fill="#2F2E41"/>
<path d="M236.725 152.74C236.725 152.74 187.281 327.262 204.818 332.38C222.355 337.499 248.173 331.893 247.929 328.481C247.686 325.068 243.301 257.551 243.301 257.551C243.301 257.551 268.876 347.249 300.54 326.287C332.204 305.325 325.14 301.425 322.217 299.962C319.294 298.5 275.209 229.032 275.452 216.114C275.696 203.195 274.965 162.734 269.607 156.64L236.725 152.74Z" fill="#2F2E41"/>
<path d="M345.793 338H45.7139V336.859H346L345.793 338Z" fill="#3F3D56"/>
<path d="M268.13 90.6907C266.227 88.9688 265.041 86.5944 264.805 84.0381C264.57 81.4819 265.303 78.9305 266.859 76.8896C266.653 77.0829 266.452 77.2835 266.259 77.4969C264.442 79.5112 263.498 82.1652 263.635 84.8756C263.772 87.586 264.98 90.131 266.991 91.9511C269.003 93.7712 271.654 94.7176 274.363 94.5821C277.071 94.4466 279.615 93.2403 281.435 91.2285C281.628 91.0152 281.807 90.7946 281.979 90.5701C280.106 92.3244 277.643 93.3104 275.078 93.3328C272.513 93.3551 270.033 92.4121 268.13 90.6907Z" fill="#2F2E41"/>
<path d="M267.171 93.1445C278.807 93.1445 288.24 83.7049 288.24 72.0605C288.24 60.4162 278.807 50.9766 267.171 50.9766C255.535 50.9766 246.103 60.4162 246.103 72.0605C246.103 83.7049 255.535 93.1445 267.171 93.1445Z" fill="#2F2E41"/>
<path d="M210.42 331.649C210.42 331.649 204.818 337.256 210.42 337.256C216.022 337.256 221.38 333.599 221.38 333.599L210.42 331.649Z" fill="#2F2E41"/>
<path d="M253.775 85.2229C253.775 85.2229 257.428 100.335 254.749 103.26C252.07 106.185 246.224 108.379 246.224 108.379L247.199 135.678C247.199 135.678 258.403 131.778 258.89 131.291C259.377 130.803 269.363 114.96 269.363 114.96L279.106 105.697C279.106 105.697 264.248 98.6289 268.633 86.4416C273.017 74.2543 253.775 85.2229 253.775 85.2229Z" fill="#9F616A"/>
<path d="M275.289 80.1845C276.409 73.2748 271.72 66.7644 264.816 65.6431C257.911 64.5218 251.405 69.2143 250.285 76.1239C249.164 83.0336 253.853 89.544 260.758 90.6653C267.663 91.7866 274.168 87.0942 275.289 80.1845Z" fill="#9F616A"/>
<path d="M269.607 156.64C269.607 156.64 275.209 138.116 277.888 135.678C280.567 133.241 287.144 110.329 287.144 110.329C287.144 110.329 283.003 104.723 279.593 104.723C276.183 104.723 273.017 105.941 269.12 109.598C267.284 111.319 263.937 113.214 260.909 114.736C259.834 115.286 258.661 115.616 257.457 115.706C256.254 115.797 255.044 115.647 253.9 115.264C252.755 114.882 251.698 114.275 250.79 113.479C249.882 112.683 249.142 111.715 248.612 110.629C248.007 109.342 247.808 108.108 248.416 107.16C248.416 107.16 239.404 109.598 238.917 113.01C238.43 116.422 238.917 123.491 238.187 124.954C237.456 126.416 235.264 128.61 236.238 137.872C237.212 147.134 235.221 158.847 235.221 158.847C244.32 167.535 256.925 162.172 269.607 156.64Z" fill="#F50057"/>
<path d="M262.665 74.1325C268.584 74.1325 273.382 70.8587 273.382 66.8202C273.382 62.7817 268.584 59.5078 262.665 59.5078C256.746 59.5078 251.948 62.7817 251.948 66.8202C251.948 70.8587 256.746 74.1325 262.665 74.1325Z" fill="#2F2E41"/>
<path d="M280.933 66.3327C286.582 66.3327 291.163 61.7494 291.163 56.0954C291.163 50.4415 286.582 45.8582 280.933 45.8582C275.283 45.8582 270.703 50.4415 270.703 56.0954C270.703 61.7494 275.283 66.3327 280.933 66.3327Z" fill="#2F2E41"/>
<path d="M288.24 63.4076C285.674 63.4073 283.203 62.4424 281.315 60.7042C279.428 58.9661 278.261 56.5816 278.048 54.0234C278.025 54.305 278.01 54.589 278.01 54.8766C278.01 57.5906 279.088 60.1935 281.005 62.1129C282.922 64.0323 285.523 65.1112 288.235 65.1123C290.947 65.1135 293.549 64.0368 295.468 62.119C297.387 60.2013 298.467 57.5993 298.469 54.8853V54.8766C298.469 54.589 298.455 54.305 298.431 54.0234C298.218 56.5816 297.052 58.9661 295.164 60.7042C293.276 62.4424 290.805 63.4073 288.24 63.4076Z" fill="#2F2E41"/>
<path d="M264.246 219.977H260.843L254.043 279.338L276.473 278.585L264.246 219.977Z" fill="#F50057"/>
<path opacity="0.2" d="M264.246 219.977H260.843L254.043 279.338L276.473 278.585L264.246 219.977Z" fill="black"/>
<path d="M263.112 219.219L258.957 278.961L309.864 282.743L314.019 224.512L263.112 219.219Z" fill="#F50057"/>
<path opacity="0.2" d="M280.252 225.271C280.67 225.271 281.01 224.931 281.01 224.512C281.01 224.094 280.67 223.754 280.252 223.754C279.833 223.754 279.494 224.094 279.494 224.512C279.494 224.931 279.833 225.271 280.252 225.271Z" fill="black"/>
<path opacity="0.2" d="M296.121 227.159C296.54 227.159 296.879 226.82 296.879 226.401C296.879 225.982 296.54 225.642 296.121 225.642C295.703 225.642 295.364 225.982 295.364 226.401C295.364 226.82 295.703 227.159 296.121 227.159Z" fill="black"/>
<path d="M296.309 226.406H295.933C295.933 226.244 296.2 210.295 287.047 208.825C285.244 208.537 283.77 208.945 282.667 210.038C278.887 213.789 280.45 224.382 280.466 224.486L280.095 224.544C280.027 224.099 278.49 213.653 282.405 209.772C283.597 208.584 285.186 208.14 287.11 208.448C296.581 209.965 296.315 226.244 296.309 226.406Z" fill="#3F3D56"/>
<path d="M287.874 143.966L286.656 157.615L289.092 198.564C289.092 198.564 294.694 219.283 286.169 218.795C277.644 218.308 280.811 197.102 280.811 197.102L276.914 149.572L287.874 143.966Z" fill="#9F616A"/>
<path d="M280.811 106.916L287.144 110.329C287.144 110.329 295.668 168.313 290.797 173.919C285.926 179.525 275.94 181.719 275.452 179.525C274.965 177.331 273.26 132.753 273.26 132.753L280.811 106.916Z" fill="#F50057"/>
<path d="M34.479 0H27.3758C27.1261 0 26.8865 0.0992888 26.7099 0.276027C26.5333 0.452764 26.4341 0.692474 26.4341 0.942419V4.06247C26.4341 4.31242 26.5333 4.55213 26.7099 4.72886C26.8865 4.9056 27.1261 5.00489 27.3758 5.00489H28.5529V9.67979H33.3019V5.00489H34.479C34.7287 5.00489 34.9682 4.9056 35.1449 4.72886C35.3215 4.55213 35.4207 4.31242 35.4207 4.06247V0.942419C35.4207 0.692479 35.3215 0.452775 35.1449 0.276039C34.9683 0.0993018 34.7287 8.32379e-06 34.479 0Z" fill="#E6E6E6"/>
<path d="M41.5937 28.5547C37.2435 22.1845 35.0196 14.6 35.2406 6.88756C35.2446 6.70961 35.1869 6.53578 35.0773 6.39557C34.9677 6.25537 34.813 6.15744 34.6395 6.11842V4.77026H27.1376V6.09969H27.0342C26.9331 6.09982 26.8331 6.11987 26.7397 6.15871C26.6464 6.19754 26.5616 6.25439 26.4902 6.32601C26.4188 6.39764 26.3622 6.48263 26.3237 6.57614C26.2851 6.66965 26.2653 6.76985 26.2655 6.87101C26.2655 6.88972 26.2662 6.9084 26.2675 6.92707C26.8586 15.1716 24.8629 22.5651 20.2805 29.1076C20.0168 29.4836 19.8821 29.935 19.8966 30.3941L20.7168 55.7865C20.7366 56.3529 20.9741 56.8898 21.3799 57.2851C21.7857 57.6804 22.3283 57.9036 22.8946 57.9081H39.8627C40.4354 57.9034 40.9837 57.6752 41.3908 57.2719C41.7978 56.8686 42.0314 56.3222 42.0418 55.7491L42.3579 31.0951C42.3672 30.1902 42.1006 29.304 41.5937 28.5547Z" fill="#E6E6E6"/>
<path d="M38.9075 36.9893H24.1382C23.9195 36.9893 23.7035 37.0366 23.5049 37.128C23.3062 37.2193 23.1297 37.3526 22.9873 37.5187C22.845 37.6847 22.7402 37.8796 22.6801 38.09C22.6201 38.3003 22.6062 38.5212 22.6395 38.7375L24.8713 53.2552H37.687L40.3979 38.7864C40.439 38.5672 40.4313 38.3417 40.3753 38.1259C40.3194 37.91 40.2167 37.7092 40.0744 37.5376C39.9321 37.366 39.7537 37.228 39.5521 37.1332C39.3504 37.0384 39.1303 36.9893 38.9075 36.9893V36.9893Z" fill="white"/>
<path d="M113.55 76.0662H106.447C106.198 76.0662 105.958 76.1655 105.781 76.3422C105.605 76.5189 105.506 76.7586 105.506 77.0086V80.1286C105.506 80.3786 105.605 80.6183 105.781 80.795C105.958 80.9718 106.198 81.0711 106.447 81.0711H107.624V85.7459H112.373V81.0711H113.55C113.8 81.0711 114.04 80.9718 114.216 80.795C114.393 80.6183 114.492 80.3786 114.492 80.1286V77.0086C114.492 76.7586 114.393 76.5189 114.216 76.3422C114.04 76.1655 113.8 76.0662 113.55 76.0662Z" fill="#E6E6E6"/>
<path d="M120.665 104.621C116.315 98.2507 114.091 90.6662 114.312 82.9537C114.316 82.7758 114.258 82.6019 114.149 82.4617C114.039 82.3215 113.885 82.2236 113.711 82.1846V80.8364H106.209V82.1659H106.106C106.005 82.166 105.905 82.186 105.811 82.2249C105.718 82.2637 105.633 82.3206 105.562 82.3922C105.49 82.4638 105.434 82.5488 105.395 82.6423C105.357 82.7358 105.337 82.836 105.337 82.9372C105.337 82.9559 105.338 82.9746 105.339 82.9932C105.93 91.2377 103.934 98.6312 99.352 105.174C99.0883 105.55 98.9536 106.001 98.9681 106.46L99.7884 131.853C99.8081 132.419 100.046 132.956 100.451 133.351C100.857 133.747 101.4 133.97 101.966 133.974H118.934C119.507 133.97 120.055 133.741 120.462 133.338C120.869 132.935 121.103 132.388 121.113 131.815L121.429 107.161C121.439 106.256 121.172 105.37 120.665 104.621Z" fill="#E6E6E6"/>
<path d="M117.979 113.055H103.21C102.991 113.055 102.775 113.103 102.576 113.194C102.378 113.286 102.201 113.419 102.059 113.585C101.917 113.751 101.812 113.946 101.752 114.156C101.692 114.367 101.678 114.587 101.711 114.804L103.943 129.321H116.759L119.469 114.853C119.51 114.633 119.503 114.408 119.447 114.192C119.391 113.976 119.288 113.775 119.146 113.604C119.004 113.432 118.825 113.294 118.624 113.199C118.422 113.105 118.202 113.055 117.979 113.055V113.055Z" fill="white"/>
<path d="M24.493 183.601H21.1237C21.0052 183.601 20.8916 183.648 20.8078 183.732C20.7241 183.816 20.677 183.93 20.677 184.048V185.528C20.677 185.647 20.7241 185.761 20.8078 185.844C20.8916 185.928 21.0052 185.975 21.1237 185.975H21.6821V188.193H23.9347V185.975H24.493C24.6115 185.975 24.7251 185.928 24.8089 185.844C24.8927 185.761 24.9397 185.647 24.9397 185.528V184.048C24.9397 183.93 24.8927 183.816 24.8089 183.732C24.7251 183.648 24.6115 183.601 24.493 183.601Z" fill="#E6E6E6"/>
<path d="M27.8676 197.146C25.8041 194.125 24.7493 190.527 24.8541 186.869C24.856 186.784 24.8286 186.702 24.7766 186.635C24.7246 186.569 24.6512 186.522 24.5689 186.504V185.864H21.0104V186.495H20.9614C20.9135 186.495 20.866 186.504 20.8217 186.523C20.7774 186.541 20.7372 186.568 20.7034 186.602C20.6695 186.636 20.6427 186.677 20.6244 186.721C20.6061 186.765 20.5967 186.813 20.5968 186.861C20.5968 186.87 20.5971 186.878 20.5978 186.887C20.9262 190.62 19.9198 194.349 17.7578 197.409C17.6327 197.587 17.5688 197.801 17.5757 198.019L17.9648 210.064C17.9741 210.332 18.0868 210.587 18.2793 210.774C18.4718 210.962 18.7292 211.068 18.9978 211.07H27.0466C27.3182 211.068 27.5783 210.959 27.7714 210.768C27.9645 210.577 28.0753 210.318 28.0802 210.046L28.2301 198.351C28.2346 197.922 28.1081 197.502 27.8676 197.146Z" fill="#E6E6E6"/>
<path d="M26.7093 201.574H19.0295V205.417H26.7093V201.574Z" fill="white"/>
<path d="M40.1774 183.601H36.808C36.6896 183.601 36.5759 183.648 36.4922 183.732C36.4084 183.816 36.3613 183.93 36.3613 184.048V185.528C36.3613 185.647 36.4084 185.761 36.4922 185.844C36.5759 185.928 36.6896 185.975 36.808 185.975H37.3664V188.193H39.619V185.975H40.1774C40.2958 185.975 40.4095 185.928 40.4932 185.844C40.577 185.761 40.6241 185.647 40.6241 185.528V184.048C40.6241 183.99 40.6125 183.932 40.5901 183.877C40.5676 183.823 40.5347 183.774 40.4932 183.732C40.4518 183.691 40.4025 183.658 40.3483 183.635C40.2941 183.613 40.236 183.601 40.1774 183.601Z" fill="#E6E6E6"/>
<path d="M43.552 197.146C41.4885 194.125 40.4336 190.527 40.5384 186.869C40.5403 186.784 40.5129 186.702 40.4609 186.635C40.4089 186.569 40.3356 186.522 40.2532 186.504V185.864H36.6948V186.495H36.6457C36.5978 186.495 36.5503 186.504 36.506 186.523C36.4618 186.541 36.4215 186.568 36.3877 186.602C36.3538 186.636 36.327 186.677 36.3087 186.721C36.2904 186.765 36.281 186.813 36.2811 186.861C36.2811 186.87 36.2814 186.878 36.2821 186.887C36.6105 190.62 35.6041 194.349 33.4421 197.409C33.317 197.587 33.2532 197.801 33.26 198.019L33.6491 210.064C33.6585 210.332 33.7712 210.587 33.9636 210.774C34.1561 210.962 34.4135 211.068 34.6821 211.07H42.7309C43.0026 211.068 43.2626 210.959 43.4557 210.768C43.6488 210.577 43.7596 210.318 43.7645 210.046L43.9144 198.351C43.9189 197.922 43.7924 197.502 43.552 197.146Z" fill="#E6E6E6"/>
<path d="M42.3937 201.574H34.7139V205.417H42.3937V201.574Z" fill="white"/>
<path d="M55.8617 183.601H52.4924C52.3739 183.601 52.2603 183.648 52.1765 183.732C52.0927 183.816 52.0457 183.93 52.0457 184.048V185.528C52.0457 185.647 52.0927 185.761 52.1765 185.844C52.2603 185.928 52.3739 185.975 52.4924 185.975H53.0507V188.193H55.3034V185.975H55.8617C55.9802 185.975 56.0938 185.928 56.1776 185.844C56.2614 185.761 56.3084 185.647 56.3084 185.528V184.048C56.3084 183.93 56.2614 183.816 56.1776 183.732C56.0938 183.648 55.9802 183.601 55.8617 183.601Z" fill="#E6E6E6"/>
<path d="M59.2365 197.146C57.173 194.125 56.1181 190.527 56.223 186.869C56.2248 186.784 56.1975 186.702 56.1455 186.635C56.0935 186.569 56.0201 186.522 55.9378 186.504V185.864H52.3793V186.495H52.3303C52.2824 186.495 52.2349 186.504 52.1906 186.523C52.1463 186.541 52.1061 186.568 52.0722 186.602C52.0384 186.636 52.0115 186.677 51.9933 186.721C51.975 186.765 51.9656 186.813 51.9656 186.861C51.9656 186.87 51.966 186.878 51.9666 186.887C52.2951 190.62 51.2887 194.349 49.1267 197.409C49.0016 197.587 48.9377 197.801 48.9446 198.019L49.3337 210.064C49.343 210.332 49.4557 210.587 49.6482 210.774C49.8407 210.962 50.0981 211.068 50.3667 211.07H58.4155C58.6871 211.068 58.9472 210.959 59.1403 210.768C59.3334 210.577 59.4442 210.318 59.4491 210.046L59.599 198.351C59.6035 197.922 59.477 197.502 59.2365 197.146Z" fill="#E6E6E6"/>
<path d="M58.078 201.574H50.3982V205.417H58.078V201.574Z" fill="white"/>
<path d="M101.211 154.175H94.1077C93.858 154.175 93.6185 154.274 93.4418 154.451C93.2652 154.627 93.166 154.867 93.166 155.117V158.237C93.166 158.487 93.2652 158.727 93.4418 158.903C93.6185 159.08 93.858 159.179 94.1077 159.179H95.2848V163.854H100.034V159.179H101.211C101.335 159.179 101.457 159.155 101.571 159.108C101.686 159.06 101.789 158.991 101.877 158.903C101.964 158.816 102.034 158.712 102.081 158.598C102.128 158.483 102.153 158.361 102.153 158.237V155.117C102.153 154.867 102.053 154.627 101.877 154.451C101.7 154.274 101.461 154.175 101.211 154.175Z" fill="#E6E6E6"/>
<path d="M108.325 182.729C103.975 176.359 101.751 168.775 101.972 161.062C101.976 160.884 101.919 160.71 101.809 160.57C101.699 160.43 101.545 160.332 101.371 160.293V158.945H93.8693V160.274H93.7659C93.6648 160.274 93.5648 160.294 93.4714 160.333C93.3781 160.372 93.2933 160.429 93.2219 160.501C93.1505 160.572 93.0939 160.657 93.0554 160.751C93.0168 160.844 92.997 160.944 92.9972 161.046C92.9972 161.064 92.9979 161.083 92.9993 161.102C93.5903 169.346 91.5946 176.74 87.0122 183.282C86.7485 183.658 86.6138 184.11 86.6283 184.569L87.4486 209.961C87.4683 210.527 87.7058 211.064 88.1116 211.46C88.5174 211.855 89.06 212.078 89.6263 212.083H106.594C107.167 212.078 107.715 211.85 108.122 211.446C108.529 211.043 108.763 210.497 108.773 209.924L109.09 185.27C109.099 184.365 108.832 183.479 108.325 182.729Z" fill="#E6E6E6"/>
<path d="M105.639 191.164H90.8699C90.6512 191.164 90.4352 191.211 90.2366 191.302C90.0379 191.394 89.8614 191.527 89.719 191.693C89.5767 191.859 89.4719 192.054 89.4118 192.264C89.3518 192.475 89.3379 192.696 89.3711 192.912L91.603 207.429H104.419L107.13 192.961C107.171 192.742 107.163 192.516 107.107 192.3C107.051 192.084 106.948 191.884 106.806 191.712C106.664 191.54 106.485 191.402 106.284 191.308C106.082 191.213 105.862 191.164 105.639 191.164V191.164Z" fill="white"/>
<path d="M105.089 61.177H62.7471C65.7073 45.1605 65.0263 25.8201 62.7471 5.02075H105.089C102.87 25.8201 102.207 45.1606 105.089 61.177Z" fill="#E6E6E6"/>
<path d="M84.173 41.7776C89.8078 41.7776 94.3758 37.2064 94.3758 31.5674C94.3758 25.9285 89.8078 21.3572 84.173 21.3572C78.5382 21.3572 73.9702 25.9285 73.9702 31.5674C73.9702 37.2064 78.5382 41.7776 84.173 41.7776Z" fill="white"/>
<path d="M66.3181 135.712H23.9766C26.9368 119.695 26.2558 100.355 23.9766 79.5554H66.3181C64.0995 100.355 63.4366 119.695 66.3181 135.712Z" fill="#E6E6E6"/>
<path d="M45.4025 116.312C51.0373 116.312 55.6053 111.741 55.6053 106.102C55.6053 100.463 51.0373 95.8918 45.4025 95.8918C39.7677 95.8918 35.1997 100.463 35.1997 106.102C35.1997 111.741 39.7677 116.312 45.4025 116.312Z" fill="white"/>
<path d="M129.065 64.7505H86.7236C89.6839 48.734 89.0029 29.3936 86.7236 8.59424H129.065C126.847 29.3936 126.184 48.734 129.065 64.7505Z" fill="#E6E6E6"/>
<path d="M108.15 45.3511C113.784 45.3511 118.352 40.7798 118.352 35.1409C118.352 29.5019 113.784 24.9307 108.15 24.9307C102.515 24.9307 97.9468 29.5019 97.9468 35.1409C97.9468 40.7798 102.515 45.3511 108.15 45.3511Z" fill="white"/>
<path d="M129.065 62.198H86.7236C89.6839 46.1815 89.0029 26.8411 86.7236 6.04175H129.065C126.847 26.8411 126.184 46.1816 129.065 62.198Z" fill="#E6E6E6"/>
<path d="M108.15 42.7986C113.784 42.7986 118.352 38.2274 118.352 32.5884C118.352 26.9494 113.784 22.3782 108.15 22.3782C102.515 22.3782 97.9468 26.9494 97.9468 32.5884C97.9468 38.2274 102.515 42.7986 108.15 42.7986Z" fill="white"/>
<path d="M129.065 64.7505H86.7236C89.6839 48.734 89.0029 29.3936 86.7236 8.59424H129.065C126.847 29.3936 126.184 48.734 129.065 64.7505Z" fill="#E6E6E6"/>
<path d="M108.15 45.3511C113.784 45.3511 118.352 40.7798 118.352 35.1409C118.352 29.5019 113.784 24.9307 108.15 24.9307C102.515 24.9307 97.9468 29.5019 97.9468 35.1409C97.9468 40.7798 102.515 45.3511 108.15 45.3511Z" fill="white"/>
<path d="M138.758 58.114H0V73.4294H138.758V58.114Z" fill="#E6E6E6"/>
<path d="M138.758 134.18H0V149.496H138.758V134.18Z" fill="#E6E6E6"/>
<path d="M138.758 210.246H0V225.562H138.758V210.246Z" fill="#E6E6E6"/>
</g>
<defs>
<clipPath id="clip0">
<rect width="346" height="338" fill="white"/>
</clipPath>
</defs>
</svg>
