<svg width="99" height="52" viewBox="0 0 99 52" fill="none" xmlns="http://www.w3.org/2000/svg">
<path d="M24.4168 0H19.3866C19.2098 0 19.0401 0.0703127 18.9151 0.195472C18.79 0.320631 18.7197 0.490385 18.7197 0.667387V2.87689C18.7197 3.0539 18.79 3.22365 18.9151 3.34881C19.0401 3.47397 19.2098 3.54428 19.3866 3.54428H20.2202V6.85488H23.5832V3.54428H24.4168C24.5937 3.54428 24.7633 3.47397 24.8884 3.34881C25.0134 3.22365 25.0837 3.0539 25.0837 2.87689V0.667387C25.0837 0.490388 25.0135 0.320639 24.8884 0.19548C24.7633 0.0703219 24.5937 5.89461e-06 24.4168 0Z" fill="#F50057"/>
<path d="M29.4552 20.2214C26.3746 15.7103 24.7997 10.3392 24.9562 4.87757C24.959 4.75155 24.9181 4.62845 24.8405 4.52916C24.7629 4.42987 24.6534 4.36052 24.5305 4.33289V3.37817H19.2179V4.31962H19.1447C19.0731 4.31972 19.0023 4.33392 18.9362 4.36142C18.8701 4.38892 18.81 4.42918 18.7595 4.4799C18.7089 4.53062 18.6689 4.59081 18.6415 4.65703C18.6142 4.72325 18.6002 4.79421 18.6003 4.86585C18.6003 4.87909 18.6008 4.89233 18.6018 4.90555C19.0203 10.744 17.6071 15.9798 14.362 20.613C14.1752 20.8792 14.0799 21.1989 14.0901 21.524L14.671 39.506C14.685 39.9071 14.8532 40.2873 15.1405 40.5673C15.4279 40.8472 15.8122 41.0053 16.2132 41.0085H28.2294C28.635 41.0051 29.0233 40.8435 29.3115 40.5579C29.5998 40.2723 29.7652 39.8854 29.7725 39.4795L29.9964 22.0205C30.003 21.3797 29.8142 20.7521 29.4552 20.2214Z" fill="#F50057"/>
<path d="M27.553 26.1943H17.0938C16.939 26.1943 16.786 26.2278 16.6453 26.2926C16.5047 26.3573 16.3796 26.4516 16.2788 26.5692C16.178 26.6868 16.1038 26.8248 16.0613 26.9738C16.0188 27.1228 16.009 27.2792 16.0325 27.4323L17.613 37.7133H26.6886L28.6084 27.467C28.6375 27.3118 28.632 27.1521 28.5924 26.9992C28.5528 26.8464 28.48 26.7042 28.3793 26.5827C28.2785 26.4612 28.1522 26.3634 28.0094 26.2963C27.8666 26.2291 27.7107 26.1943 27.553 26.1943V26.1943Z" fill="white"/>
<path d="M74.42 43.3232H44.4353C46.5317 31.9809 46.0494 18.2847 44.4353 3.55542H74.42C72.8489 18.2848 72.3794 31.981 74.42 43.3232Z" fill="#F50057"/>
<path d="M59.6083 29.5853C63.5987 29.5853 66.8335 26.3481 66.8335 22.3548C66.8335 18.3615 63.5987 15.1243 59.6083 15.1243C55.6179 15.1243 52.3831 18.3615 52.3831 22.3548C52.3831 26.3481 55.6179 29.5853 59.6083 29.5853Z" fill="white"/>
<path d="M91.3993 45.854H61.4146C63.5109 34.5117 63.0286 20.8155 61.4146 6.08618H91.3993C89.8282 20.8155 89.3587 34.5117 91.3993 45.854Z" fill="#F50057"/>
<path d="M76.5875 32.1161C80.5779 32.1161 83.8128 28.8788 83.8128 24.8855C83.8128 20.8922 80.5779 17.655 76.5875 17.655C72.5972 17.655 69.3623 20.8922 69.3623 24.8855C69.3623 28.8788 72.5972 32.1161 76.5875 32.1161Z" fill="white"/>
<path d="M98.2632 41.1543H0V52.0001H98.2632V41.1543Z" fill="#F50057"/>
</svg>
